<?xml version="1.0" encoding="UTF-8"?>
<svg id="Layer_1" data-name="Layer 1" xmlns="http://www.w3.org/2000/svg" xmlns:xodm="http://www.corel.com/coreldraw/odm/2003" version="1.1" viewBox="0 0 4027.1 1249.2">
  <defs>
    <style>
      .cls-1 {
        fill-rule: evenodd;
      }

      .cls-1, .cls-2 {
        fill: #9da4a2;
        stroke-width: 0px;
      }
    </style>
  </defs>
  <g id="Layer1">
    <path class="cls-1" d="M987.4,169.2c-39.2,70.2-60.3,134-62.4,191.1,106.7.8,208.1,13.3,295.4,57.4-115.2,29-209,72.4-287,126.1,127.2,81.1,198.7,197.8,206.6,354.9-60.7-67.3-132.6-111.2-214.9-133.3,16.5,107.9,46.1,208.5,90.6,301-187.3-213.8-448.2-175.8-475.7,7.9-39.2-43.9-70.3-215.5-63.6-280.7-46.4,24.9-106.4,58.5-139.7,105.1-11.1-94.8,14.9-185.1,87-270-105.1-10.8-191.9-6.9-275.1,0,114-191.5,274.6-216.7,443.9-211,135.8-189.4,265.8-229.8,394.9-248.4h0ZM800.4,733.8c-41.1,55.3-74.6,101.4-103.3,141.9-28-33.6-50.8-77.5-70.3-128.1,62.6-10.3,118.7-12.8,173.6-13.8h0ZM728.6,527.4h0s0-.3,0-.3v-.3c-.3-.6-.5-1.3-.7-1.9v-.3c0,0,0,0,0,0-.3-.8-.6-1.6-.9-2.4h0s0-.3,0-.3c-.2-.6-.5-1.2-.7-1.9v-.3c-.1,0-.2-.3-.2-.3v-.3c-.3-.6-.6-1.2-.8-1.8h0c0,0-.1-.3-.1-.3v-.3c-.1,0-.1,0-.1,0-.2-.6-.5-1.1-.7-1.7h0s-.1-.3-.1-.3v-.3c-.1,0-.2-.3-.2-.3-.2-.5-.5-1-.7-1.5v-.3c-.1,0-.1,0-.1,0h0c0-.1,0-.2,0-.2h0c0-.1,0-.2,0-.2h0c-.3-.7-.6-1.4-.9-2h0c0-.1,0-.2,0-.2h0c-.3-.7-.6-1.3-.9-2h0c0-.1,0-.2,0-.2h0c0-.1,0-.2,0-.2h0c0-.1,0-.2,0-.2-.3-.5-.6-1.1-.8-1.6h0c0-.1,0-.2,0-.2h0c0,0,0-.2,0-.2h0c0,0,0-.2,0-.2h0c-.3-.6-.6-1.1-.8-1.6h0c0,0,0-.2,0-.2h0c0,0,0-.2,0-.2h0c0,0,0-.2,0-.2h0c0,0,0-.2,0-.2h0c0,0,0-.2,0-.2-.3-.5-.5-1-.8-1.4h0c0,0,0-.1,0-.1l-.2-.4h0c0,0,0-.1,0-.1h0c0,0,0-.2,0-.2h0s0,0,0,0h0s0,0,0,0c-.3-.4-.5-.9-.8-1.3h0s0,0,0,0h0s-.1-.3-.1-.3h0c0,0,0-.1,0-.1-.3-.5-.7-1.1-1-1.6h0c0,0,0-.1,0-.1h0c0,0,0-.1,0-.1h0c0,0,0-.1,0-.1h0c0,0,0-.1,0-.1h0c0,0,0-.1,0-.1-.3-.4-.5-.8-.8-1.2h0c0,0,0-.1,0-.1h0c0,0-.4-.6-.4-.6h0c0,0,0-.1,0-.1h0s0,0,0,0h0c-.3-.4-.5-.8-.8-1.2h0s0,0,0,0h0s0,0,0,0h0s0,0,0,0h0s-.2-.4-.2-.4h0s0,0,0,0h0s0,0,0,0h0s0,0,0,0h0s0,0,0,0h0s0,0,0,0c-.2-.3-.5-.7-.8-1h0s0,0,0,0h0s-.2-.2-.2-.2h0s0,0,0,0l-.3-.5h0s0,0,0,0h0s0,0,0,0h0c-.3-.4-.5-.8-.8-1.1h0s0,0,0,0h0s0,0,0,0l-.5-.6h0s0-.2,0-.2h0s0,0,0,0c-.3-.3-.5-.6-.8-1h0s0,0,0,0h0s0,0,0,0h0s0,0,0,0h0s0,0,0,0h0s0,0,0,0h0s-.3-.4-.3-.4h0s0,0,0,0h0c-.3-.4-.6-.7-.9-1h0s0,0,0,0h0s-.3-.4-.3-.4h0s0,0,0,0h0s0,0,0,0h0s0,0,0,0h0s0,0,0,0h0s0,0,0,0h0s0,0,0,0h0s0,0,0,0c-.3-.4-.7-.8-1-1.1h0s0,0,0,0h0s0,0,0,0h0s0,0,0,0h0s0,0,0,0h0s0,0,0,0h0s0,0,0,0h0s0,0,0,0l-.3-.4h0s0,0,0,0h0s0,0,0,0c-.2-.3-.5-.5-.7-.8h0s0,0,0,0h0s0,0,0,0h0s0,0,0,0h0s0,0,0,0h0s0,0,0,0h0s0,0,0,0h0s0,0,0,0h0s-.4-.4-.4-.4h0s0,0,0,0h0s0,0,0,0h0s0,0,0,0h0s0,0,0,0h0s0,0,0,0h0s0,0,0,0c-.2-.2-.5-.5-.7-.7h0s0,0,0,0h0s0,0,0,0h0s0,0,0,0h0s0,0,0,0h0s-.4-.4-.4-.4h0s0,0,0,0h0s0,0,0,0h0s0,0,0,0h0s0,0,0,0h0s0,0,0,0h0s0,0,0,0h0s0,0,0,0h0s0,0,0,0h0c-.4-.4-.8-.8-1.2-1.2h0s0,0,0,0h0s0,0,0,0h0s0,0,0,0h0s0,0,0,0h0s0,0,0,0h0s0,0,0,0h0s0,0,0,0h0s0,0,0,0h0s0,0,0,0h0s0,0,0,0h0s0,0,0,0h0c-.1-.1-.3-.3-.4-.4h0s0,0,0,0h0s0,0,0,0h0s0,0,0,0c-.2-.2-.5-.4-.7-.7h0s0,0,0,0h0s0,0,0,0h0s0,0,0,0h0s0,0,0,0h0s0,0,0,0h0s0,0,0,0h0s0,0,0,0h0s-.5-.5-.5-.5h0s0,0,0,0h0s0,0,0,0h0s0,0,0,0h0s0,0,0,0c-.2-.2-.5-.4-.7-.6h0s0,0,0,0h0s0,0,0,0h0s0,0,0,0h0s0,0,0,0h0s0,0,0,0h0s-.3-.2-.3-.2h0s0,0,0,0h0s0,0,0,0h0s0,0,0,0h0s0,0,0,0h0s0,0,0,0h0s0,0,0,0h0s0,0,0,0h0s0,0,0,0h0s0,0,0,0h0s0,0,0,0h0s0,0,0,0h0s0,0,0,0h0s0,0,0,0h0c-.4-.4-.8-.7-1.3-1.1h0s0,0,0,0h0s0,0,0,0h0s0,0,0,0h0s0,0,0,0h0s0,0,0,0h0s0,0,0,0h0c0,0,0,0,0,0-.2-.2-.4-.3-.6-.5h0s0,0,0,0h0s0,0,0,0h0s0,0,0,0h0c-.2-.2-.4-.3-.7-.5h0s0,0,0,0h0s0,0,0,0h0s0,0,0,0h0s0,0,0,0h0s0,0,0,0h0s0,0,0,0h0s0,0,0,0l-.7-.5h0s0,0,0,0h0s0,0,0,0h0s0,0,0,0h0s0,0,0,0h0s0,0,0,0l-.7-.5h0s0,0,0,0h0s0,0,0,0h0c-.3-.2-.5-.4-.8-.6h0s0,0,0,0h0s0,0,0,0h0s0,0,0,0h0s0,0,0,0h0s0,0,0,0h0s0,0,0,0c-.2-.1-.4-.3-.6-.4h0s0,0,0,0h0c-.5-.3-1-.7-1.4-1h0s0,0,0,0h0s0,0,0,0c-.2-.1-.4-.3-.6-.4h0s0,0,0,0h0s0,0,0,0h0s0,0,0,0h0s0,0,0,0h0s0,0,0,0h0s0,0,0,0h0c-.3-.2-.5-.4-.8-.5h0s0,0,0,0h0s0,0,0,0h0s0,0,0,0h0s0,0,0,0h0s-.7-.4-.7-.4h0s0,0,0,0h0s0,0,0,0h0s0,0,0,0h0s0,0,0,0c-.3-.2-.6-.4-.9-.5h0s0,0,0,0h0s0,0,0,0h0s0,0,0,0h0s0,0,0,0h0s0,0,0,0h0c-.2-.1-.4-.2-.6-.3h0s0,0,0,0h0s0,0,0,0h0c-.5-.3-1-.6-1.5-.9h0c-.2-.1-.4-.2-.6-.3h0s0,0,0,0h0s0,0,0,0h0s0,0,0,0h0s0,0,0,0h0s0,0,0,0h0c-.3-.2-.7-.4-1-.5h0s0,0,0,0h0s-.7-.3-.7-.3h0c-.4-.2-.7-.4-1.1-.5h0s0,0,0,0h0s0,0,0,0h0s0,0,0,0h0s0,0,0,0h0s0,0,0,0c-.2,0-.4-.2-.5-.3h0s0,0,0,0h0c-.5-.3-1.1-.5-1.7-.7h0s0,0,0,0h0s0,0,0,0h0s0,0,0,0h0c-.1,0-.3-.1-.4-.2h0s0,0,0,0h0s0,0,0,0h0s0,0,0,0h0s0,0,0,0h0s0,0,0,0h0s0,0,0,0c-.4-.2-.8-.3-1.2-.5h0s0,0,0,0h0s0,0,0,0h0s0,0,0,0h0c-.2,0-.4-.2-.6-.2h0s0,0,0,0h0s0,0,0,0h0s0,0,0,0c-.4-.2-.8-.3-1.2-.4h0s0,0,0,0h0s-.6-.2-.6-.2h0c-.6-.2-1.2-.4-1.8-.6h0s0,0,0,0h0s0,0,0,0h0s0,0,0,0c-.1,0-.2,0-.3,0h0s0,0,0,0h0s0,0,0,0h0s0,0,0,0h0s0,0,0,0c-.5-.1-.9-.3-1.4-.4h0s-.6-.2-.6-.2h0s0,0,0,0c-.4-.1-.8-.2-1.3-.3h0s0,0,0,0h0c-.2,0-.4-.1-.6-.1h0c-.6-.2-1.2-.3-1.8-.4h0s-.3,0-.3,0h0s0,0,0,0c-.5-.1-1-.2-1.5-.3h0s0,0,0,0h-.6c0-.1,0-.1,0-.1h0c-.5,0-.9-.1-1.4-.2h0s0,0,0,0h-.5c0,0,0,0,0,0h0c-.6,0-1.3-.2-1.9-.2h0s0,0,0,0h0c-.6,0-1.2-.1-1.8-.2h0s-.6,0-.6,0h0s0,0,0,0h0c-.4,0-.9,0-1.3,0h0s0,0,0,0h0s0,0,0,0h-.6s0,0,0,0c-.7,0-1.3,0-2,0-47.3,0-85.6,52-85.6,116.2s38.3,116.2,85.6,116.2,1.3,0,2,0h0s0,0,0,0h.5s0,0,0,0h0s0,0,0,0h0s0,0,0,0h0s0,0,0,0h0c.4,0,.9,0,1.3,0h0s.7,0,.7,0h0s0,0,0,0h0c.5,0,.9,0,1.4-.1h0s0,0,0,0h0s0,0,0,0h0s0,0,0,0h0s0,0,0,0h.5s0,0,0,0h0c.6,0,1.3-.1,1.9-.2h0s.2,0,.2,0h0s0,0,0,0c.6,0,1.1-.2,1.7-.3h0s0,0,0,0c.2,0,.4,0,.6,0h0s0,0,0,0h0s0,0,0,0h0s0,0,0,0h0s0,0,0,0c.4,0,.9-.2,1.3-.2h0s0,0,0,0h.6c0-.1,0-.1,0-.1h0c.5-.1.9-.2,1.4-.3h0s0,0,0,0h0s0,0,0,0h0s0,0,0,0h0s0,0,0,0h0s0,0,0,0h0s0,0,0,0h0c.1,0,.2,0,.4,0h0s0,0,0,0h0s0,0,0,0h0c.6-.2,1.2-.3,1.9-.5h0s.4-.1.4-.1h0s0,0,0,0h0c.5-.1,1-.3,1.4-.4h0s0,0,0,0l.6-.2h0s0,0,0,0c.4-.1.8-.3,1.2-.4h0s0,0,0,0h0s0,0,0,0h0s0,0,0,0h0s.6-.2.6-.2h0s0,0,0,0h0s0,0,0,0h0s0,0,0,0h0c.4-.2.8-.3,1.2-.5h0s0,0,0,0h0s0,0,0,0h0s0,0,0,0h0c.1,0,.3-.1.4-.2h0s0,0,0,0h0s0,0,0,0h0c.6-.2,1.2-.5,1.8-.7h0s0,0,0,0c.2,0,.3-.1.5-.2h0s0,0,0,0h0s0,0,0,0h0s0,0,0,0h0s0,0,0,0h0s0,0,0,0h0s0,0,0,0c.4-.2.8-.3,1.2-.5h0s0,0,0,0h0s0,0,0,0c.2-.1.5-.2.7-.3h0s0,0,0,0h0s0,0,0,0h0s0,0,0,0h0c.3-.2.7-.3,1-.5h0s0,0,0,0h0s0,0,0,0h0c.2-.1.4-.2.6-.3h0s0,0,0,0h0s0,0,0,0h0s0,0,0,0c.4-.2.8-.4,1.1-.6h0s0,0,0,0h0s0,0,0,0h0s0,0,0,0h0s0,0,0,0h0s0,0,0,0h0s0,0,0,0h0s.4-.2.4-.2h0s0,0,0,0h0s0,0,0,0c.5-.3,1.1-.6,1.6-.9h0s0,0,0,0h0s0,0,0,0h0c.2-.1.4-.2.6-.3h0s0,0,0,0h0s0,0,0,0h0s0,0,0,0h0s0,0,0,0h0c.3-.2.6-.4,1-.6h0s0,0,0,0h0c.2-.2.5-.3.7-.5h0s0,0,0,0h0s0,0,0,0c.3-.2.6-.4.9-.5h0s0,0,0,0h0s0,0,0,0h0s0,0,0,0h0s0,0,0,0c.2-.1.5-.3.7-.4h0s0,0,0,0h0s0,0,0,0h0s0,0,0,0h0c.3-.2.6-.4.9-.6h0s0,0,0,0h0s0,0,0,0h0s0,0,0,0h0s0,0,0,0h0s0,0,0,0c.3-.2.6-.4.9-.6h0s0,0,0,0h0s0,0,0,0c.4-.3.7-.5,1.1-.8h0s0,0,0,0h0s0,0,0,0h0c.2-.2.4-.3.7-.5h0s0,0,0,0h0s0,0,0,0h0s0,0,0,0h0s0,0,0,0h0s0,0,0,0h0s0,0,0,0h0c.2-.2.5-.4.7-.5h0s0,0,0,0h0s0,0,0,0h0s0,0,0,0h0c.3-.2.5-.4.8-.6h0s0,0,0,0h0s0,0,0,0h0s0,0,0,0h0s0,0,0,0h0s0,0,0,0l.5-.4h0s0,0,0,0h0s0,0,0,0h0s0,0,0,0h0s0,0,0,0h0s0,0,0,0h0s0,0,0,0h0s0,0,0,0h0s0,0,0,0c.2-.2.5-.4.7-.6h0s0,0,0,0h0s0,0,0,0h0s0,0,0,0l.5-.5h0s0,0,0,0h0s0,0,0,0h0s0,0,0,0h0s0,0,0,0h0s0,0,0,0h0s0,0,0,0h0s0,0,0,0h0s0,0,0,0h0s0,0,0,0h0s0,0,0,0h0c.4-.3.7-.7,1.1-1h0s0,0,0,0h0s0,0,0,0h0s0,0,0,0h0s0,0,0,0h0s0,0,0,0h0c.2-.2.5-.4.7-.6h0s0,0,0,0h0s0,0,0,0h0s0,0,0,0c.2-.2.4-.4.6-.6h0s0,0,0,0h0s0,0,0,0h0s0,0,0,0h0s0,0,0,0h0s0,0,0,0h0s0,0,0,0h0s0,0,0,0h0s0,0,0,0c.2-.2.3-.3.5-.5h0s0,0,0,0h0s0,0,0,0h0s0,0,0,0h0s0,0,0,0h0s0,0,0,0h0s0,0,0,0h0s0,0,0,0c.2-.2.5-.4.7-.7h0s0,0,0,0h0s0,0,0,0h0s0,0,0,0h0s0,0,0,0h0s0,0,0,0l.6-.6h0s0,0,0,0h0s0,0,0,0h0s0,0,0,0h0s0,0,0,0h0s0,0,0,0h0s0,0,0,0h0s0,0,0,0h0s0,0,0,0c.2-.2.4-.4.6-.6h0s0,0,0,0h0s0,0,0,0h0s0,0,0,0l.4-.5h0s0,0,0,0h0s0,0,0,0h0s0,0,0,0h0s0,0,0,0h0s0,0,0,0h0s0,0,0,0h0s0,0,0,0h0s0,0,0,0h0s0,0,0,0h0s0,0,0,0h0c0,0,0,0,0,0,.4-.4.8-.8,1.1-1.2h0s0,0,0,0h0s0,0,0,0h0s0,0,0,0h0s0,0,0,0h0s0,0,0,0h0s0,0,0,0h0s0,0,0,0h0s0,0,0,0h0s0,0,0,0h0s0,0,0,0h0s0,0,0,0h0s0,0,0,0h0s0,0,0,0h0s0,0,0,0h0s0,0,0,0h0s0,0,0,0h0s0,0,0,0l.2-.3h0s0,0,0,0h0s0,0,0,0h0s0,0,0,0h0s0,0,0,0h0s0,0,0,0c.2-.3.5-.5.7-.8h0s0,0,0,0h0s0,0,0,0h0s0,0,0,0h0s0,0,0,0h0s.5-.6.5-.6h0s0,0,0,0h0s0,0,0,0h0s0,0,0,0c.2-.3.5-.6.7-.9h0s0,0,0,0h0s0,0,0,0l.5-.5h0c0,0,0-.1,0-.1h0c0,0,0-.1,0-.1.3-.4.7-.8,1-1.2h0c0,0,0-.1,0-.1h0c0,0,0-.1,0-.1h0c0,0,0-.1,0-.1h0c0,0,0-.1,0-.1h0c0,0,0-.1,0-.1.4-.5.7-.9,1.1-1.4h0c0,0,0-.1,0-.1h0c0,0,0-.1,0-.1h0c0,0,0-.1,0-.1l.3-.4h0s0,0,0,0h0c.2-.3.5-.7.7-1h0s0,0,0,0h0s0,0,0,0h0s0,0,0,0h0s0,0,0,0h0s.4-.6.4-.6h0s0,0,0,0h0s0,0,0,0h0c.3-.4.5-.8.8-1.1h0s0,0,0,0h0s.2-.4.2-.4h0c0,0,0-.1,0-.1h0c0,0,0-.1,0-.1h0c0,0,0-.1,0-.1h0c0,0,0-.1,0-.1.3-.5.6-.9.9-1.4h0c0,0,0-.1,0-.1h0c0,0,0-.1,0-.1h0c0,0,0-.1,0-.1h0c.4-.6.7-1.2,1.1-1.7h0c0,0,0-.1,0-.1h0c0,0,0-.1,0-.1h0c0,0,.2-.5.2-.5h0s0,0,0,0h0s0,0,0,0h0s0,0,0,0c.2-.4.5-.8.7-1.2h0s0,0,0,0l.3-.5h0s0,0,0,0h0s0,0,0,0h0s0,0,0,0h0s0,0,0,0c.2-.4.5-.8.7-1.2h0s0,0,0,0h0s0-.2,0-.2h0c0,0,0-.2,0-.2l.3-.5h0c0,0,0-.2,0-.2.3-.5.5-1,.8-1.5h0c0,0,0-.2,0-.2h0c0,0,0-.2,0-.2h0c0,0,0-.2,0-.2h0c0,0,0-.2,0-.2h0c.3-.7.6-1.2.9-1.8h0c0,0,0-.2,0-.2h0c0,0,0-.2,0-.2l.2-.3h0s0,0,0,0h0s0,0,0,0h0c.2-.5.4-.9.6-1.3h0s0,0,0,0h0s0,0,0,0h0s0,0,0,0h0s.1-.3.1-.3h0c0-.1,0-.2,0-.2h0c.3-.7.5-1.2.8-1.8h0c0-.1,0-.2,0-.2h0c0-.1,0-.2,0-.2.3-.7.6-1.4,1-2.1h0c0-.1,0-.2,0-.2h0c.3-.8.6-1.4.8-2.1h0c0-.1,0-.2,0-.2h0c0-.1.1-.4.1-.4h0s0,0,0,0h0s0,0,0,0h0c0,0,0,0,0,0,.2-.4.4-.9.5-1.3h0s0,0,0,0h0s0,0,0,0h0s0,0,0,0h0s0,0,0,0v-.3c.1,0,.2-.1.2-.1h0c.3-.8.5-1.5.8-2.3h0c0-.1,0-.2,0-.2.6-1.6,1.1-3.2,1.7-4.8h0c0-.1,0-.2,0-.2v-.3c.1,0,.1,0,.1,0h0s0,0,0,0h0c.2-.6.3-1.1.5-1.7h0s0,0,0,0h0s0,0,0,0v-.2c0,0,0,0,0,0h0c0,0,0-.2,0-.2h0c0,0,0-.2,0-.2.2-.6.4-1.2.5-1.8h0c0,0,0-.2,0-.2h0c0,0,0-.2,0-.2v-.3c0,0,.1,0,.1,0h0c0,0,0-.2,0-.2h0c0,0,0-.2,0-.2.1-.5.2-.9.4-1.4h0c0,0,0-.2,0-.2l.3-1.1h0c.5,1.2,1.1,2.4,1.6,3.7h0c.6,1.3,1.1,2.5,1.7,3.7h0c.6,1.3,1.2,2.4,1.8,3.5v.2c.7,1.1,1.4,2.2,2,3.3h0c.7,1.2,1.3,2.2,2,3.3v.2c.8,1,1.5,2,2.2,2.9l.2.2c.2.3.4.6.7.9l.2.2c.4.5.8,1.1,1.3,1.6l.2.3c.2.3.5.6.7.8l.2.2c.4.5.9,1,1.4,1.5l.2.2c.2.2.5.5.7.7l.4.4c.4.4.7.7,1.1,1.1.1.1.3.3.4.4.2.2.4.4.6.6l.4.4c.3.3.5.5.8.8.3.2.5.5.8.7.2.2.4.4.6.5l.5.4c.2.2.4.3.6.5.3.3.7.5,1,.8.2.2.4.3.6.5l.6.4.6.5c.3.2.5.4.8.6.3.2.5.4.8.6l.7.5.5.4c.3.2.7.4,1,.6l.5.3c.3.2.6.4.9.5l.5.3c.3.2.6.4,1,.5l.5.3c.3.2.7.4,1,.5l.5.2c.3.2.7.3,1,.5l.3.2c.4.2.8.4,1.3.6l.4.2c.3.1.7.3,1,.4h.4c.4.3.9.5,1.3.6h.4c.3.3.7.4,1,.5h.4c.4.3.9.4,1.3.5h.4c.4.2.7.3,1.1.4h.4c.5.2.9.3,1.4.4h.3c.4.1.8.2,1.2.3h.3c.5.1,1,.2,1.5.3h.2c.4,0,.8.1,1.3.2h.4c.5,0,1,.1,1.5.2h.2c.5,0,.9,0,1.4,0h.4c.5,0,1,0,1.5,0,36.1,0,65.4-40.1,65.4-89.5s-29.3-89.5-65.4-89.5-1,0-1.5,0h-.4c-.4,0-.8,0-1.2,0h-.3c-.5,0-1,0-1.5.1h-.3c-.4,0-.8.1-1.2.2h-.4c-.5.1-.9.2-1.4.3h0c-.5,0-1,.2-1.5.3h-.4c-.4.2-.7.2-1.1.3h-.4c-.5.2-.9.3-1.4.5h-.3c-.4.2-.7.3-1.1.4h-.5c-.4.3-.8.4-1.2.5h-.2c-.5.2-.9.4-1.4.6h-.4c-.4.3-.7.4-1.1.6l-.4.2c-.5.2-.9.4-1.3.6h-.2c-.4.3-.8.5-1.1.7l-.4.2c-.4.2-.7.4-1.1.6h-.3c-.4.4-.9.6-1.3.9l-.3.2c-.3.2-.7.4-1,.6l-.4.2c-.4.3-.9.5-1.3.8h-.1c-.4.3-.7.6-1.1.9l-.4.3c-.3.2-.6.4-.9.7l-.3.3c-.4.3-.8.6-1.2.9l-.3.3c-.3.2-.6.5-.9.7l-.4.3c-.3.3-.7.6-1,.9l-.2.2c-.4.3-.7.7-1.1,1l-.3.3c-.3.3-.6.5-.9.8l-.3.3c-.4.4-.7.7-1.1,1.1l-.3.3c-.3.3-.6.6-.9.9l-.4.4c-.3.3-.6.6-.9,1l-.2.2c-.3.4-.7.8-1,1.2l-.3.4c-.2.3-.5.6-.7.9l-.3.4c-.3.4-.7.8-1,1.3l-.2.3c-.3.4-.5.7-.8,1.1l-.3.5c-.2.3-.5.7-.7,1l-.3.4c-.3.4-.6.9-.9,1.3l-.3.4c-.2.4-.5.7-.7,1.1l-.3.4c-.3.5-.6.9-.9,1.4l-.2.3c-.2.4-.5.8-.7,1.2l-.3.5c-.2.4-.4.8-.6,1.1l-.2.4c-.3.5-.5,1-.8,1.5l-.2.5c-.2.4-.4.8-.6,1.1l-.3.5c-.2.5-.5,1-.7,1.5h0s0,0,0,0h0c-.2.6-.5,1.1-.7,1.6l-.2.5c-.2.4-.4.8-.5,1.2l-.2.5c-.2.5-.4,1.1-.7,1.6l-.2.5c-.2.4-.3.8-.5,1.2l-.2.7c-.2.5-.3.9-.5,1.4v.3c-.1,0-.8-2.2-.8-2.2h0Z"/>
    <ellipse class="cls-2" cx="650.2" cy="573.8" rx="28.8" ry="39.1"/>
    <polygon class="cls-1" points="779 789.1 713.6 798.6 763.7 804.8 779 789.1"/>
    <polygon class="cls-1" points="635.4 796.9 690.4 798.6 644.5 815.7 635.4 796.9"/>
    <ellipse class="cls-2" cx="788.3" cy="568.3" rx="24.6" ry="33.7"/>
  </g>
  <g>
    <path class="cls-2" d="M1413.9,301.7c14.4,0,24.5,8.9,30.3,26.4l67.7,191.3,68.8-194.7c5.1-15.3,14.8-23,28.8-23s29.2,13.2,29.2,31.5-1.6,11.9-4.3,18.7l-82.4,216.4c-8.9,23.9-22.6,35.8-41.6,35.8s-32.7-11.9-41.6-35.8l-82.8-217.2c-1.9-5.5-3.1-11.1-3.1-16.2,0-19.2,12.8-33.2,31.1-33.2Z"/>
    <path class="cls-2" d="M1632.8,493c0-32.4,10.5-59.6,31.5-81.8,21-22.6,47-33.6,78.2-33.6s56.8,10.6,77,32.4c20.6,21.7,30.7,48.6,30.7,80.9s-10.5,59.6-31.5,82.2c-21,22.1-47,33.2-78.2,33.2s-56.8-10.6-77.4-32.4c-20.2-21.7-30.3-48.6-30.3-80.9ZM1778.6,533c10.1-11.1,15.2-24.7,15.2-40.9s-5.1-29.8-15.2-40.9c-9.7-11.1-22.2-16.6-36.9-16.6s-27.6,5.5-37.7,16.6c-9.7,11.1-14.8,24.7-14.8,40.9s5.1,29.8,14.8,40.9c10.1,11.1,22.6,16.6,37.7,16.6s27.2-5.5,36.9-16.6Z"/>
    <path class="cls-2" d="M2045,396.3c10.1,7.2,15.2,16.2,15.2,26.8,0,17-10.5,29-26.1,29s-10.1-2.1-16.7-6.4c-9.7-7.2-20.2-11.1-31.1-11.1s-27.6,5.5-37.7,16.6c-9.7,11.1-14.8,24.7-14.8,40.9s5.1,29.8,14.8,40.9c10.1,11.1,22.6,16.6,37.7,16.6s23.3-4.3,33.1-12.8c6.2-4.3,11.7-6.4,16.7-6.4,14.4,0,25.3,11.9,25.3,28.5s-3.9,17-11.7,23.9c-17.5,15.8-38.9,23.4-64.5,23.4s-56.8-10.6-77.4-32.4c-20.2-21.7-30.3-48.6-30.3-80.9s10.5-59.6,31.5-81.8c21-22.6,47-33.6,78.2-33.6s41.2,6.4,57.9,18.7Z"/>
    <path class="cls-2" d="M2267.4,477.2v98.8c0,16.6-10.5,28.1-25.7,28.1s-21-6.4-24.1-19.6c-15.2,14.5-35,21.7-59.9,21.7-47,0-77.4-27.7-77.4-66.9s7.4-36.2,21.8-49.4c14.4-13.2,33.4-19.6,57.2-19.6s37.7,5.1,51.3,15.8v-9.4c0-30.2-18.7-47.3-45.5-47.3s-24.1,3.4-35.4,10.2c-4.3,2.1-8.6,3.4-13.2,3.4-12.8,0-21.8-9.8-21.8-23.4s4.3-17.5,13.2-23c17.5-12.8,40.4-19.2,68.4-19.2,56.4,0,91,37.1,91,99.7ZM2212.6,536.8c0-17-15.2-30.2-38.5-30.2s-36.9,13.2-36.9,30.2,15.2,30.2,36.9,30.2,38.5-13.2,38.5-30.2Z"/>
    <path class="cls-2" d="M2498.4,410.3c19.1,21.7,28.4,48.6,28.4,80.5s-9.7,59.2-29.2,81.8c-19.4,22.6-42.8,33.6-69.6,33.6s-48.2-11.1-64.5-33.6v3c0,16.6-10.9,28.5-26.1,28.5s-26.1-11.9-26.1-28.5v-243.2c0-18.3,11.7-30.7,28.4-30.7s28,13.2,28,30.7v76.7c15.9-20.9,36.9-31.5,62.2-31.5s49.4,11.1,68.4,32.8ZM2417.9,549.6c14.8,0,27.2-5.5,36.9-16.6,10.1-11.1,15.2-24.7,15.2-40.9s-5.1-29.8-15.2-40.9c-9.7-11.1-22.2-16.6-36.9-16.6s-27.2,5.5-37.3,16.6c-9.7,11.1-14.8,24.7-14.8,40.9s5.1,29.8,14.8,40.9c10.1,11.1,22.6,16.6,37.3,16.6Z"/>
    <path class="cls-2" d="M2683.8,301.7c14.4,0,24.5,8.9,30.3,26.4l67.7,191.3,68.8-194.7c5.1-15.3,14.8-23,28.8-23s29.2,13.2,29.2,31.5-1.6,11.9-4.3,18.7l-82.4,216.4c-8.9,23.9-22.6,35.8-41.6,35.8s-32.7-11.9-41.6-35.8l-82.8-217.2c-1.9-5.5-3.1-11.1-3.1-16.2,0-19.2,12.8-33.2,31.1-33.2Z"/>
    <path class="cls-2" d="M2933.1,321.3c0-20.4,14-35.8,34.2-35.8s33.8,15.3,33.8,35.8-14,35.8-33.8,35.8-34.2-14.9-34.2-35.8ZM2995.7,411.2v161.4c0,18.3-11.7,31.5-28.4,31.5s-28.8-13.2-28.8-31.5v-161.4c0-18.3,11.7-31.5,28.8-31.5s28.4,13.2,28.4,31.5Z"/>
    <path class="cls-2" d="M3202.2,396.3c10.1,7.2,15.2,16.2,15.2,26.8,0,17-10.5,29-26.1,29s-10.1-2.1-16.7-6.4c-9.7-7.2-20.2-11.1-31.1-11.1s-27.6,5.5-37.7,16.6c-9.7,11.1-14.8,24.7-14.8,40.9s5.1,29.8,14.8,40.9c10.1,11.1,22.6,16.6,37.7,16.6s23.3-4.3,33.1-12.8c6.2-4.3,11.7-6.4,16.7-6.4,14.4,0,25.3,11.9,25.3,28.5s-3.9,17-11.7,23.9c-17.5,15.8-38.9,23.4-64.5,23.4s-56.8-10.6-77.4-32.4c-20.2-21.7-30.3-48.6-30.3-80.9s10.5-59.6,31.5-81.8c21-22.6,47-33.6,78.2-33.6s41.2,6.4,57.9,18.7Z"/>
    <path class="cls-2" d="M3272.9,381.8v-23.9c0-18.3,11.7-30.7,28.4-30.7s28,12.4,28,30.7v23.9h41.6c13.6,0,22.6,10.2,22.6,25.1s-8.9,25.1-22.6,25.1h-41.6v88.6c0,19.2,7.8,29,23.7,29s14.4-1.7,15.6-1.7c15.2,0,24.5,9.8,24.5,25.6s-6.6,22.6-19.4,27.7c-10.9,3.4-22.6,5.1-35,5.1-40.4,0-65.7-25.6-65.7-69.9v-104.4h-15.9c-14,0-22.9-10.2-22.9-25.1s8.9-25.1,22.9-25.1h15.9Z"/>
    <path class="cls-2" d="M3412.9,493c0-32.4,10.5-59.6,31.5-81.8,21-22.6,47-33.6,78.2-33.6s56.8,10.6,77,32.4c20.6,21.7,30.7,48.6,30.7,80.9s-10.5,59.6-31.5,82.2c-21,22.1-47,33.2-78.2,33.2s-56.8-10.6-77.4-32.4c-20.2-21.7-30.3-48.6-30.3-80.9ZM3558.7,533c10.1-11.1,15.2-24.7,15.2-40.9s-5.1-29.8-15.2-40.9c-9.7-11.1-22.2-16.6-36.9-16.6s-27.6,5.5-37.7,16.6c-9.7,11.1-14.8,24.7-14.8,40.9s5.1,29.8,14.8,40.9c10.1,11.1,22.6,16.6,37.7,16.6s27.2-5.5,36.9-16.6Z"/>
    <path class="cls-2" d="M3667.2,406.9c0-15.8,10.5-27.3,24.9-27.3s25.3,11.5,25.3,27.3l.4,17.9c12.4-31.5,31.1-47.3,56.4-47.3s29.2,13.2,29.2,31.5-12.1,31.9-29.2,31.9c-31.1,0-50.5,21.7-50.5,63.9v68.2c0,18.3-11.3,31.1-28,31.1s-28.4-12.8-28.4-31.1v-166.1Z"/>
    <path class="cls-2" d="M1527.1,663.2c30.7,0,55.2,9.4,73.9,28.1,18.7,18.3,28,42.6,28,72.8s-9.7,54.5-29.2,73.7c-19.1,19.2-43.9,29-74.7,29h-56.4v63.9c0,19.2-12.4,32.8-29.9,32.8s-29.6-13.6-29.6-32.8v-235.1c0-18.7,12.4-32.4,29.6-32.4h88.3ZM1521.2,813.1c29.2,0,48.2-19.6,48.2-47.3s-19.1-47.7-48.2-47.7h-52.5v95h52.5Z"/>
    <path class="cls-2" d="M1833.9,836.5v98.8c0,16.6-10.5,28.1-25.7,28.1s-21-6.4-24.1-19.6c-15.2,14.5-35,21.7-59.9,21.7-47,0-77.4-27.7-77.4-66.9s7.4-36.2,21.8-49.4c14.4-13.2,33.4-19.6,57.2-19.6s37.7,5.1,51.3,15.8v-9.4c0-30.2-18.7-47.3-45.5-47.3s-24.1,3.4-35.4,10.2c-4.3,2.1-8.6,3.4-13.2,3.4-12.8,0-21.8-9.8-21.8-23.4s4.3-17.5,13.2-23c17.5-12.8,40.4-19.2,68.4-19.2,56.4,0,91,37.1,91,99.7ZM1779,896.2c0-17-15.2-30.2-38.5-30.2s-36.9,13.2-36.9,30.2,15.2,30.2,36.9,30.2,38.5-13.2,38.5-30.2Z"/>
    <path class="cls-2" d="M1877.8,766.2c0-15.8,10.5-27.3,24.9-27.3s25.3,11.5,25.3,27.3l.4,17.9c12.4-31.5,31.1-47.3,56.4-47.3s29.2,13.2,29.2,31.5-12.1,31.9-29.2,31.9c-31.1,0-50.5,21.7-50.5,63.9v68.2c0,18.3-11.3,31.1-28,31.1s-28.4-12.8-28.4-31.1v-166.1ZM2034.5,717.3c0-18.3,11.3-30.7,28-30.7s28.4,12.4,28.4,30.7v23.9h40.8c14,0,23.3,10.2,23.3,25.6s-9.3,26-23.3,26h-40.8v87.3c0,19.2,7.8,29,23.7,29s14-1.7,15.6-1.7c14.4,0,24.5,9.8,24.5,25.6s-6.6,22.6-19.8,27.7c-10.5,3.4-22.2,5.1-35,5.1-40.4,0-65.3-25.6-65.3-69.9v-178.5Z"/>
    <path class="cls-2" d="M2361.1,761.1c14.4,15.8,21.4,37.9,21.4,66v105.2c0,18.3-11.7,31.1-28.4,31.1s-28-12.8-28-31.1v-85.2c0-35.4-15.9-53.2-39.3-53.2s-42.4,18.3-42.4,55.4v83.1c0,18.3-11.3,31.1-28,31.1s-28.4-12.8-28.4-31.1v-164.4c0-16.6,10.9-29,26.4-29s26.1,12.4,26.1,29v7.7c14-25.6,38.9-38.8,66.5-38.8s40.1,8.1,54,24.3Z"/>
    <path class="cls-2" d="M2595.6,767.5c19.8,20,29.6,43.4,29.6,69.4s-9.3,26.4-23.7,26.4h-126.8c3.5,29,24.9,48.6,54,48.6s29.6-6,43.2-17.5c5.1-3.8,10.1-5.5,15.6-5.5,13.6,0,22.9,9.8,22.9,24.7s-4.3,16.6-12.4,24.3c-19.1,18.3-43.2,27.7-73.1,27.7s-56.8-10.6-77.4-32.4c-20.2-21.7-30.3-48.6-30.3-80.9s10.5-59.6,31.1-81.8c20.6-22.6,46.3-33.6,77-33.6s50.9,10.2,70.4,30.7ZM2570.7,825.9c-3.5-23.9-23.3-43-46.3-43s-44.7,17.9-49.8,43h96Z"/>
    <path class="cls-2" d="M2660.5,766.2c0-15.8,10.5-27.3,24.9-27.3s25.3,11.5,25.3,27.3l.4,17.9c12.4-31.5,31.1-47.3,56.4-47.3s29.2,13.2,29.2,31.5-12.1,31.9-29.2,31.9c-31.1,0-50.5,21.7-50.5,63.9v68.2c0,18.3-11.3,31.1-28,31.1s-28.4-12.8-28.4-31.1v-166.1Z"/>
    <path class="cls-2" d="M2926.1,904.7l138.4-186.6h-114.7c-15.2,0-24.9-11.1-24.9-27.7s10.5-27.3,24.9-27.3h166.8c17.5,0,29.9,13.2,29.9,32.4s-2.7,16.6-8.2,23.4l-139.6,187.4h122.9c14.4,0,24.9,11.5,24.9,27.3s-10.5,27.7-24.9,27.7h-175c-17.5,0-29.6-13.2-29.6-31.9s3.1-17,8.9-24.7Z"/>
    <path class="cls-2" d="M3166.4,852.3c0-32.4,10.5-59.6,31.5-81.8,21-22.6,47-33.6,78.2-33.6s56.8,10.6,77,32.4c20.6,21.7,30.7,48.6,30.7,80.9s-10.5,59.6-31.5,82.2c-21,22.1-47,33.2-78.2,33.2s-56.8-10.6-77.4-32.4c-20.2-21.7-30.3-48.6-30.3-80.9ZM3312.2,892.3c10.1-11.1,15.2-24.7,15.2-40.9s-5.1-29.8-15.2-40.9c-9.7-11.1-22.2-16.6-36.9-16.6s-27.6,5.5-37.7,16.6c-9.7,11.1-14.8,24.7-14.8,40.9s5.1,29.8,14.8,40.9c10.1,11.1,22.6,16.6,37.7,16.6s27.2-5.5,36.9-16.6Z"/>
    <path class="cls-2" d="M3593.7,761.1c14.4,15.8,21.4,37.9,21.4,66v105.2c0,18.3-11.7,31.1-28.4,31.1s-28-12.8-28-31.1v-85.2c0-35.4-15.9-53.2-39.3-53.2s-42.4,18.3-42.4,55.4v83.1c0,18.3-11.3,31.1-28,31.1s-28.4-12.8-28.4-31.1v-164.4c0-16.6,10.9-29,26.4-29s26.1,12.4,26.1,29v7.7c14-25.6,38.9-38.8,66.5-38.8s40.1,8.1,54,24.3Z"/>
    <path class="cls-2" d="M3828.2,767.5c19.8,20,29.6,43.4,29.6,69.4s-9.3,26.4-23.7,26.4h-126.8c3.5,29,24.9,48.6,54,48.6s29.6-6,43.2-17.5c5.1-3.8,10.1-5.5,15.6-5.5,13.6,0,22.9,9.8,22.9,24.7s-4.3,16.6-12.4,24.3c-19.1,18.3-43.2,27.7-73.1,27.7s-56.8-10.6-77.4-32.4c-20.2-21.7-30.3-48.6-30.3-80.9s10.5-59.6,31.1-81.8c20.6-22.6,46.3-33.6,77-33.6s50.9,10.2,70.4,30.7ZM3803.3,825.9c-3.5-23.9-23.3-43-46.3-43s-44.7,17.9-49.8,43h96Z"/>
  </g>
</svg>