<?xml version="1.0" encoding="UTF-8"?>
<svg id="Layer_1" data-name="Layer 1" xmlns="http://www.w3.org/2000/svg" xmlns:xodm="http://www.corel.com/coreldraw/odm/2003" version="1.1" viewBox="0 0 5518.1 1027">
  <defs>
    <style>
      .cls-1 {
        fill-rule: evenodd;
      }

      .cls-1, .cls-2 {
        fill: #9da4a2;
        stroke-width: 0px;
      }
    </style>
  </defs>
  <g id="Layer1">
    <path class="cls-1" d="M906.5,64.4c-39.2,70.2-60.3,134-62.4,191.1,106.7.8,208.1,13.3,295.4,57.4-115.2,29-209,72.4-287,126.1,127.2,81.1,198.7,197.8,206.6,354.9-60.7-67.3-132.6-111.2-214.9-133.3,16.5,107.9,46.1,208.5,90.6,301-187.3-213.8-448.2-175.8-475.7,7.9-39.2-43.9-70.3-215.5-63.6-280.7-46.4,24.9-106.4,58.5-139.7,105.1-11.1-94.8,14.9-185.1,87-270-105.1-10.8-191.9-6.9-275.1,0,114-191.5,274.6-216.7,443.9-211,135.8-189.4,265.8-229.8,394.9-248.4h0ZM719.5,629c-41.1,55.3-74.6,101.4-103.3,141.9-28-33.6-50.8-77.5-70.3-128.1,62.6-10.3,118.7-12.8,173.6-13.8h0ZM647.7,422.5h0s0-.3,0-.3v-.3c-.3-.6-.5-1.3-.7-1.9v-.3c0,0,0,0,0,0-.3-.8-.6-1.6-.9-2.4h0s0-.3,0-.3c-.2-.6-.5-1.2-.7-1.9v-.3c-.1,0-.2-.3-.2-.3v-.3c-.3-.6-.6-1.2-.8-1.8h0c0,0-.1-.3-.1-.3v-.3c-.1,0-.1,0-.1,0-.2-.6-.5-1.1-.7-1.7h0s-.1-.3-.1-.3v-.3c-.1,0-.2-.3-.2-.3-.2-.5-.5-1-.7-1.5v-.3c-.1,0-.1,0-.1,0h0c0-.1,0-.2,0-.2h0c0-.1,0-.2,0-.2h0c-.3-.7-.6-1.4-.9-2h0c0-.1,0-.2,0-.2h0c-.3-.7-.6-1.3-.9-2h0c0-.1,0-.2,0-.2h0c0-.1,0-.2,0-.2h0c0-.1,0-.2,0-.2-.3-.5-.6-1.1-.8-1.6h0c0-.1,0-.2,0-.2h0c0,0,0-.2,0-.2h0c0,0,0-.2,0-.2h0c-.3-.6-.6-1.1-.8-1.6h0c0,0,0-.2,0-.2h0c0,0,0-.2,0-.2h0c0,0,0-.2,0-.2h0c0,0,0-.2,0-.2h0c0,0,0-.2,0-.2-.3-.5-.5-1-.8-1.4h0c0,0,0-.1,0-.1l-.2-.4h0c0,0,0-.1,0-.1h0c0,0,0-.2,0-.2h0s0,0,0,0h0s0,0,0,0c-.3-.4-.5-.9-.8-1.3h0s0,0,0,0h0s-.1-.3-.1-.3h0c0,0,0-.1,0-.1-.3-.5-.7-1.1-1-1.6h0c0,0,0-.1,0-.1h0c0,0,0-.1,0-.1h0c0,0,0-.1,0-.1h0c0,0,0-.1,0-.1h0c0,0,0-.1,0-.1-.3-.4-.5-.8-.8-1.2h0c0,0,0-.1,0-.1h0c0,0-.4-.6-.4-.6h0c0,0,0-.1,0-.1h0s0,0,0,0h0c-.3-.4-.5-.8-.8-1.2h0s0,0,0,0h0s0,0,0,0h0s0,0,0,0h0s-.2-.4-.2-.4h0s0,0,0,0h0s0,0,0,0h0s0,0,0,0h0s0,0,0,0h0s0,0,0,0c-.2-.3-.5-.7-.8-1h0s0,0,0,0h0s-.2-.2-.2-.2h0s0,0,0,0l-.3-.5h0s0,0,0,0h0s0,0,0,0h0c-.3-.4-.5-.8-.8-1.1h0s0,0,0,0h0s0,0,0,0l-.5-.6h0s0-.2,0-.2h0s0,0,0,0c-.3-.3-.5-.6-.8-1h0s0,0,0,0h0s0,0,0,0h0s0,0,0,0h0s0,0,0,0h0s0,0,0,0h0s-.3-.4-.3-.4h0s0,0,0,0h0c-.3-.4-.6-.7-.9-1h0s0,0,0,0h0s-.3-.4-.3-.4h0s0,0,0,0h0s0,0,0,0h0s0,0,0,0h0s0,0,0,0h0s0,0,0,0h0s0,0,0,0h0s0,0,0,0c-.3-.4-.7-.8-1-1.1h0s0,0,0,0h0s0,0,0,0h0s0,0,0,0h0s0,0,0,0h0s0,0,0,0h0s0,0,0,0h0s0,0,0,0l-.3-.4h0s0,0,0,0h0s0,0,0,0c-.2-.3-.5-.5-.7-.8h0s0,0,0,0h0s0,0,0,0h0s0,0,0,0h0s0,0,0,0h0s0,0,0,0h0s0,0,0,0h0s0,0,0,0h0s-.4-.4-.4-.4h0s0,0,0,0h0s0,0,0,0h0s0,0,0,0h0s0,0,0,0h0s0,0,0,0h0s0,0,0,0c-.2-.2-.5-.5-.7-.7h0s0,0,0,0h0s0,0,0,0h0s0,0,0,0h0s0,0,0,0h0s-.4-.4-.4-.4h0s0,0,0,0h0s0,0,0,0h0s0,0,0,0h0s0,0,0,0h0s0,0,0,0h0s0,0,0,0h0s0,0,0,0h0s0,0,0,0h0c-.4-.4-.8-.8-1.2-1.2h0s0,0,0,0h0s0,0,0,0h0s0,0,0,0h0s0,0,0,0h0s0,0,0,0h0s0,0,0,0h0s0,0,0,0h0s0,0,0,0h0s0,0,0,0h0s0,0,0,0h0s0,0,0,0h0c-.1-.1-.3-.3-.4-.4h0s0,0,0,0h0s0,0,0,0h0s0,0,0,0c-.2-.2-.5-.4-.7-.7h0s0,0,0,0h0s0,0,0,0h0s0,0,0,0h0s0,0,0,0h0s0,0,0,0h0s0,0,0,0h0s0,0,0,0h0s-.5-.5-.5-.5h0s0,0,0,0h0s0,0,0,0h0s0,0,0,0h0s0,0,0,0c-.2-.2-.5-.4-.7-.6h0s0,0,0,0h0s0,0,0,0h0s0,0,0,0h0s0,0,0,0h0s0,0,0,0h0s-.3-.2-.3-.2h0s0,0,0,0h0s0,0,0,0h0s0,0,0,0h0s0,0,0,0h0s0,0,0,0h0s0,0,0,0h0s0,0,0,0h0s0,0,0,0h0s0,0,0,0h0s0,0,0,0h0s0,0,0,0h0s0,0,0,0h0s0,0,0,0h0c-.4-.4-.8-.7-1.3-1.1h0s0,0,0,0h0s0,0,0,0h0s0,0,0,0h0s0,0,0,0h0s0,0,0,0h0s0,0,0,0h0c0,0,0,0,0,0-.2-.2-.4-.3-.6-.5h0s0,0,0,0h0s0,0,0,0h0s0,0,0,0h0c-.2-.2-.4-.3-.7-.5h0s0,0,0,0h0s0,0,0,0h0s0,0,0,0h0s0,0,0,0h0s0,0,0,0h0s0,0,0,0h0s0,0,0,0l-.7-.5h0s0,0,0,0h0s0,0,0,0h0s0,0,0,0h0s0,0,0,0h0s0,0,0,0l-.7-.5h0s0,0,0,0h0s0,0,0,0h0c-.3-.2-.5-.4-.8-.6h0s0,0,0,0h0s0,0,0,0h0s0,0,0,0h0s0,0,0,0h0s0,0,0,0h0s0,0,0,0c-.2-.1-.4-.3-.6-.4h0s0,0,0,0h0c-.5-.3-1-.7-1.4-1h0s0,0,0,0h0s0,0,0,0c-.2-.1-.4-.3-.6-.4h0s0,0,0,0h0s0,0,0,0h0s0,0,0,0h0s0,0,0,0h0s0,0,0,0h0s0,0,0,0h0c-.3-.2-.5-.4-.8-.5h0s0,0,0,0h0s0,0,0,0h0s0,0,0,0h0s0,0,0,0h0s-.7-.4-.7-.4h0s0,0,0,0h0s0,0,0,0h0s0,0,0,0h0s0,0,0,0c-.3-.2-.6-.4-.9-.5h0s0,0,0,0h0s0,0,0,0h0s0,0,0,0h0s0,0,0,0h0s0,0,0,0h0c-.2-.1-.4-.2-.6-.3h0s0,0,0,0h0s0,0,0,0h0c-.5-.3-1-.6-1.5-.9h0c-.2-.1-.4-.2-.6-.3h0s0,0,0,0h0s0,0,0,0h0s0,0,0,0h0s0,0,0,0h0s0,0,0,0h0c-.3-.2-.7-.4-1-.5h0s0,0,0,0h0s-.7-.3-.7-.3h0c-.4-.2-.7-.4-1.1-.5h0s0,0,0,0h0s0,0,0,0h0s0,0,0,0h0s0,0,0,0h0s0,0,0,0c-.2,0-.4-.2-.5-.3h0s0,0,0,0h0c-.5-.3-1.1-.5-1.7-.7h0s0,0,0,0h0s0,0,0,0h0s0,0,0,0h0c-.1,0-.3-.1-.4-.2h0s0,0,0,0h0s0,0,0,0h0s0,0,0,0h0s0,0,0,0h0s0,0,0,0h0s0,0,0,0c-.4-.2-.8-.3-1.2-.5h0s0,0,0,0h0s0,0,0,0h0s0,0,0,0h0c-.2,0-.4-.2-.6-.2h0s0,0,0,0h0s0,0,0,0h0s0,0,0,0c-.4-.2-.8-.3-1.2-.4h0s0,0,0,0h0s-.6-.2-.6-.2h0c-.6-.2-1.2-.4-1.8-.6h0s0,0,0,0h0s0,0,0,0h0s0,0,0,0c-.1,0-.2,0-.3,0h0s0,0,0,0h0s0,0,0,0h0s0,0,0,0h0s0,0,0,0c-.5-.1-.9-.3-1.4-.4h0s-.6-.2-.6-.2h0s0,0,0,0c-.4-.1-.8-.2-1.3-.3h0s0,0,0,0h0c-.2,0-.4-.1-.6-.1h0c-.6-.2-1.2-.3-1.8-.4h0s-.3,0-.3,0h0s0,0,0,0c-.5-.1-1-.2-1.5-.3h0s0,0,0,0h-.6c0-.1,0-.1,0-.1h0c-.5,0-.9-.1-1.4-.2h0s0,0,0,0h-.5c0,0,0,0,0,0h0c-.6,0-1.3-.2-1.9-.2h0s0,0,0,0h0c-.6,0-1.2-.1-1.8-.2h0s-.6,0-.6,0h0s0,0,0,0h0c-.4,0-.9,0-1.3,0h0s0,0,0,0h0s0,0,0,0h-.6s0,0,0,0c-.7,0-1.3,0-2,0-47.3,0-85.6,52-85.6,116.2s38.3,116.2,85.6,116.2,1.3,0,2,0h0s0,0,0,0h.5s0,0,0,0h0s0,0,0,0h0s0,0,0,0h0s0,0,0,0h0c.4,0,.9,0,1.3,0h0s.7,0,.7,0h0s0,0,0,0h0c.5,0,.9,0,1.4-.1h0s0,0,0,0h0s0,0,0,0h0s0,0,0,0h0s0,0,0,0h.5s0,0,0,0h0c.6,0,1.3-.1,1.9-.2h0s.2,0,.2,0h0s0,0,0,0c.6,0,1.1-.2,1.7-.3h0s0,0,0,0c.2,0,.4,0,.6,0h0s0,0,0,0h0s0,0,0,0h0s0,0,0,0h0s0,0,0,0c.4,0,.9-.2,1.3-.2h0s0,0,0,0h.6c0-.1,0-.1,0-.1h0c.5-.1.9-.2,1.4-.3h0s0,0,0,0h0s0,0,0,0h0s0,0,0,0h0s0,0,0,0h0s0,0,0,0h0s0,0,0,0h0c.1,0,.2,0,.4,0h0s0,0,0,0h0s0,0,0,0h0c.6-.2,1.2-.3,1.9-.5h0s.4-.1.4-.1h0s0,0,0,0h0c.5-.1,1-.3,1.4-.4h0s0,0,0,0l.6-.2h0s0,0,0,0c.4-.1.8-.3,1.2-.4h0s0,0,0,0h0s0,0,0,0h0s0,0,0,0h0s.6-.2.6-.2h0s0,0,0,0h0s0,0,0,0h0s0,0,0,0h0c.4-.2.8-.3,1.2-.5h0s0,0,0,0h0s0,0,0,0h0s0,0,0,0h0c.1,0,.3-.1.4-.2h0s0,0,0,0h0s0,0,0,0h0c.6-.2,1.2-.5,1.8-.7h0s0,0,0,0c.2,0,.3-.1.5-.2h0s0,0,0,0h0s0,0,0,0h0s0,0,0,0h0s0,0,0,0h0s0,0,0,0h0s0,0,0,0c.4-.2.8-.3,1.2-.5h0s0,0,0,0h0s0,0,0,0c.2-.1.5-.2.7-.3h0s0,0,0,0h0s0,0,0,0h0s0,0,0,0h0c.3-.2.7-.3,1-.5h0s0,0,0,0h0s0,0,0,0h0c.2-.1.4-.2.6-.3h0s0,0,0,0h0s0,0,0,0h0s0,0,0,0c.4-.2.8-.4,1.1-.6h0s0,0,0,0h0s0,0,0,0h0s0,0,0,0h0s0,0,0,0h0s0,0,0,0h0s0,0,0,0h0s.4-.2.4-.2h0s0,0,0,0h0s0,0,0,0c.5-.3,1.1-.6,1.6-.9h0s0,0,0,0h0s0,0,0,0h0c.2-.1.4-.2.6-.3h0s0,0,0,0h0s0,0,0,0h0s0,0,0,0h0s0,0,0,0h0c.3-.2.6-.4,1-.6h0s0,0,0,0h0c.2-.2.5-.3.7-.5h0s0,0,0,0h0s0,0,0,0c.3-.2.6-.4.9-.5h0s0,0,0,0h0s0,0,0,0h0s0,0,0,0h0s0,0,0,0c.2-.1.5-.3.7-.4h0s0,0,0,0h0s0,0,0,0h0s0,0,0,0h0c.3-.2.6-.4.9-.6h0s0,0,0,0h0s0,0,0,0h0s0,0,0,0h0s0,0,0,0h0s0,0,0,0c.3-.2.6-.4.9-.6h0s0,0,0,0h0s0,0,0,0c.4-.3.7-.5,1.1-.8h0s0,0,0,0h0s0,0,0,0h0c.2-.2.4-.3.7-.5h0s0,0,0,0h0s0,0,0,0h0s0,0,0,0h0s0,0,0,0h0s0,0,0,0h0s0,0,0,0h0c.2-.2.5-.4.7-.5h0s0,0,0,0h0s0,0,0,0h0s0,0,0,0h0c.3-.2.5-.4.8-.6h0s0,0,0,0h0s0,0,0,0h0s0,0,0,0h0s0,0,0,0h0s0,0,0,0l.5-.4h0s0,0,0,0h0s0,0,0,0h0s0,0,0,0h0s0,0,0,0h0s0,0,0,0h0s0,0,0,0h0s0,0,0,0h0s0,0,0,0c.2-.2.5-.4.7-.6h0s0,0,0,0h0s0,0,0,0h0s0,0,0,0l.5-.5h0s0,0,0,0h0s0,0,0,0h0s0,0,0,0h0s0,0,0,0h0s0,0,0,0h0s0,0,0,0h0s0,0,0,0h0s0,0,0,0h0s0,0,0,0h0s0,0,0,0h0c.4-.3.7-.7,1.1-1h0s0,0,0,0h0s0,0,0,0h0s0,0,0,0h0s0,0,0,0h0s0,0,0,0h0c.2-.2.5-.4.7-.6h0s0,0,0,0h0s0,0,0,0h0s0,0,0,0c.2-.2.4-.4.6-.6h0s0,0,0,0h0s0,0,0,0h0s0,0,0,0h0s0,0,0,0h0s0,0,0,0h0s0,0,0,0h0s0,0,0,0h0s0,0,0,0c.2-.2.3-.3.5-.5h0s0,0,0,0h0s0,0,0,0h0s0,0,0,0h0s0,0,0,0h0s0,0,0,0h0s0,0,0,0h0s0,0,0,0c.2-.2.5-.4.7-.7h0s0,0,0,0h0s0,0,0,0h0s0,0,0,0h0s0,0,0,0h0s0,0,0,0l.6-.6h0s0,0,0,0h0s0,0,0,0h0s0,0,0,0h0s0,0,0,0h0s0,0,0,0h0s0,0,0,0h0s0,0,0,0h0s0,0,0,0c.2-.2.4-.4.6-.6h0s0,0,0,0h0s0,0,0,0h0s0,0,0,0l.4-.5h0s0,0,0,0h0s0,0,0,0h0s0,0,0,0h0s0,0,0,0h0s0,0,0,0h0s0,0,0,0h0s0,0,0,0h0s0,0,0,0h0s0,0,0,0h0s0,0,0,0h0c0,0,0,0,0,0,.4-.4.8-.8,1.1-1.2h0s0,0,0,0h0s0,0,0,0h0s0,0,0,0h0s0,0,0,0h0s0,0,0,0h0s0,0,0,0h0s0,0,0,0h0s0,0,0,0h0s0,0,0,0h0s0,0,0,0h0s0,0,0,0h0s0,0,0,0h0s0,0,0,0h0s0,0,0,0h0s0,0,0,0h0s0,0,0,0h0s0,0,0,0l.2-.3h0s0,0,0,0h0s0,0,0,0h0s0,0,0,0h0s0,0,0,0h0s0,0,0,0c.2-.3.5-.5.7-.8h0s0,0,0,0h0s0,0,0,0h0s0,0,0,0h0s0,0,0,0h0s.5-.6.5-.6h0s0,0,0,0h0s0,0,0,0h0s0,0,0,0c.2-.3.5-.6.7-.9h0s0,0,0,0h0s0,0,0,0l.5-.5h0c0,0,0-.1,0-.1h0c0,0,0-.1,0-.1.3-.4.7-.8,1-1.2h0c0,0,0-.1,0-.1h0c0,0,0-.1,0-.1h0c0,0,0-.1,0-.1h0c0,0,0-.1,0-.1h0c0,0,0-.1,0-.1.4-.5.7-.9,1.1-1.4h0c0,0,0-.1,0-.1h0c0,0,0-.1,0-.1h0c0,0,0-.1,0-.1l.3-.4h0s0,0,0,0h0c.2-.3.5-.7.7-1h0s0,0,0,0h0s0,0,0,0h0s0,0,0,0h0s0,0,0,0h0s.4-.6.4-.6h0s0,0,0,0h0s0,0,0,0h0c.3-.4.5-.8.8-1.1h0s0,0,0,0h0s.2-.4.2-.4h0c0,0,0-.1,0-.1h0c0,0,0-.1,0-.1h0c0,0,0-.1,0-.1h0c0,0,0-.1,0-.1.3-.5.6-.9.9-1.4h0c0,0,0-.1,0-.1h0c0,0,0-.1,0-.1h0c0,0,0-.1,0-.1h0c.4-.6.7-1.2,1.1-1.7h0c0,0,0-.1,0-.1h0c0,0,0-.1,0-.1h0c0,0,.2-.5.2-.5h0s0,0,0,0h0s0,0,0,0h0s0,0,0,0c.2-.4.5-.8.7-1.2h0s0,0,0,0l.3-.5h0s0,0,0,0h0s0,0,0,0h0s0,0,0,0h0s0,0,0,0c.2-.4.5-.8.7-1.2h0s0,0,0,0h0s0-.2,0-.2h0c0,0,0-.2,0-.2l.3-.5h0c0,0,0-.2,0-.2.3-.5.5-1,.8-1.5h0c0,0,0-.2,0-.2h0c0,0,0-.2,0-.2h0c0,0,0-.2,0-.2h0c0,0,0-.2,0-.2h0c.3-.7.6-1.2.9-1.8h0c0,0,0-.2,0-.2h0c0,0,0-.2,0-.2l.2-.3h0s0,0,0,0h0s0,0,0,0h0c.2-.5.4-.9.6-1.3h0s0,0,0,0h0s0,0,0,0h0s0,0,0,0h0s.1-.3.1-.3h0c0-.1,0-.2,0-.2h0c.3-.7.5-1.2.8-1.8h0c0-.1,0-.2,0-.2h0c0-.1,0-.2,0-.2.3-.7.6-1.4,1-2.1h0c0-.1,0-.2,0-.2h0c.3-.8.6-1.4.8-2.1h0c0-.1,0-.2,0-.2h0c0-.1.1-.4.1-.4h0s0,0,0,0h0s0,0,0,0h0c0,0,0,0,0,0,.2-.4.4-.9.5-1.3h0s0,0,0,0h0s0,0,0,0h0s0,0,0,0h0s0,0,0,0v-.3c.1,0,.2-.1.2-.1h0c.3-.8.5-1.5.8-2.3h0c0-.1,0-.2,0-.2.6-1.6,1.1-3.2,1.7-4.8h0c0-.1,0-.2,0-.2v-.3c.1,0,.1,0,.1,0h0s0,0,0,0h0c.2-.6.3-1.1.5-1.7h0s0,0,0,0h0s0,0,0,0v-.2c0,0,0,0,0,0h0c0,0,0-.2,0-.2h0c0,0,0-.2,0-.2.2-.6.4-1.2.5-1.8h0c0,0,0-.2,0-.2h0c0,0,0-.2,0-.2v-.3c0,0,.1,0,.1,0h0c0,0,0-.2,0-.2h0c0,0,0-.2,0-.2.1-.5.2-.9.4-1.4h0c0,0,0-.2,0-.2l.3-1.1h0c.5,1.2,1.1,2.4,1.6,3.7h0c.6,1.3,1.1,2.5,1.7,3.7h0c.6,1.3,1.2,2.4,1.8,3.5v.2c.7,1.1,1.4,2.2,2,3.3h0c.7,1.2,1.3,2.2,2,3.3v.2c.8,1,1.5,2,2.2,2.9l.2.2c.2.3.4.6.7.9l.2.2c.4.5.8,1.1,1.3,1.6l.2.3c.2.3.5.6.7.8l.2.2c.4.5.9,1,1.4,1.5l.2.2c.2.2.5.5.7.7l.4.4c.4.4.7.7,1.1,1.1.1.1.3.3.4.4.2.2.4.4.6.6l.4.4c.3.3.5.5.8.8.3.2.5.5.8.7.2.2.4.4.6.5l.5.4c.2.2.4.3.6.5.3.3.7.5,1,.8.2.2.4.3.6.5l.6.4.6.5c.3.2.5.4.8.6.3.2.5.4.8.6l.7.5.5.4c.3.2.7.4,1,.6l.5.3c.3.2.6.4.9.5l.5.3c.3.2.6.4,1,.5l.5.3c.3.2.7.4,1,.5l.5.2c.3.2.7.3,1,.5l.3.2c.4.2.8.4,1.3.6l.4.2c.3.1.7.3,1,.4h.4c.4.3.9.5,1.3.6h.4c.3.3.7.4,1,.5h.4c.4.3.9.4,1.3.5h.4c.4.2.7.3,1.1.4h.4c.5.2.9.3,1.4.4h.3c.4.1.8.2,1.2.3h.3c.5.1,1,.2,1.5.3h.2c.4,0,.8.1,1.3.2h.4c.5,0,1,.1,1.5.2h.2c.5,0,.9,0,1.4,0h.4c.5,0,1,0,1.5,0,36.1,0,65.4-40.1,65.4-89.5s-29.3-89.5-65.4-89.5-1,0-1.5,0h-.4c-.4,0-.8,0-1.2,0h-.3c-.5,0-1,0-1.5.1h-.3c-.4,0-.8.1-1.2.2h-.4c-.5.1-.9.2-1.4.3h0c-.5,0-1,.2-1.5.3h-.4c-.4.2-.7.2-1.1.3h-.4c-.5.2-.9.3-1.4.5h-.3c-.4.2-.7.3-1.1.4h-.5c-.4.3-.8.4-1.2.5h-.2c-.5.2-.9.4-1.4.6h-.4c-.4.3-.7.4-1.1.6l-.4.2c-.5.2-.9.4-1.3.6h-.2c-.4.3-.8.5-1.1.7l-.4.2c-.4.2-.7.4-1.1.6h-.3c-.4.4-.9.6-1.3.9l-.3.2c-.3.2-.7.4-1,.6l-.4.2c-.4.3-.9.5-1.3.8h-.1c-.4.3-.7.6-1.1.9l-.4.3c-.3.2-.6.4-.9.7l-.3.3c-.4.3-.8.6-1.2.9l-.3.3c-.3.2-.6.5-.9.7l-.4.3c-.3.3-.7.6-1,.9l-.2.2c-.4.3-.7.7-1.1,1l-.3.3c-.3.3-.6.5-.9.8l-.3.3c-.4.4-.7.7-1.1,1.1l-.3.3c-.3.3-.6.6-.9.9l-.4.4c-.3.3-.6.6-.9,1l-.2.2c-.3.4-.7.8-1,1.2l-.3.4c-.2.3-.5.6-.7.9l-.3.4c-.3.4-.7.8-1,1.3l-.2.3c-.3.4-.5.7-.8,1.1l-.3.5c-.2.3-.5.7-.7,1l-.3.4c-.3.4-.6.9-.9,1.3l-.3.4c-.2.4-.5.7-.7,1.1l-.3.4c-.3.5-.6.9-.9,1.4l-.2.3c-.2.4-.5.8-.7,1.2l-.3.5c-.2.4-.4.8-.6,1.1l-.2.4c-.3.5-.5,1-.8,1.5l-.2.5c-.2.4-.4.8-.6,1.1l-.3.5c-.2.5-.5,1-.7,1.5h0s0,0,0,0h0c-.2.6-.5,1.1-.7,1.6l-.2.5c-.2.4-.4.8-.5,1.2l-.2.5c-.2.5-.4,1.1-.7,1.6l-.2.5c-.2.4-.3.8-.5,1.2l-.2.7c-.2.5-.3.9-.5,1.4v.3c-.1,0-.8-2.2-.8-2.2h0Z"/>
    <ellipse class="cls-2" cx="569.3" cy="468.9" rx="28.8" ry="39.1"/>
    <polygon class="cls-1" points="698.1 684.2 632.7 693.8 682.8 699.9 698.1 684.2"/>
    <polygon class="cls-1" points="554.4 692.1 609.5 693.8 563.5 710.8 554.4 692.1"/>
    <ellipse class="cls-2" cx="707.4" cy="463.5" rx="24.6" ry="33.7"/>
  </g>
  <g>
    <path class="cls-2" d="M1402.9,297.2c53.3,0,95.8,16.3,128.2,48.8,32.4,31.8,48.6,73.9,48.6,126.4s-16.9,94.6-50.6,127.8c-33.1,33.3-76.2,50.2-129.5,50.2h-97.8v110.8c0,33.3-21.6,56.9-51.9,56.9s-51.3-23.6-51.3-56.9v-407.9c0-32.5,21.6-56.2,51.3-56.2h153.1ZM1392.8,557.3c50.6,0,83.6-34,83.6-82s-33.1-82.8-83.6-82.8h-91.1v164.8h91.1Z"/>
    <path class="cls-2" d="M1935.1,597.9v171.4c0,28.8-18.2,48.8-44.5,48.8s-36.4-11.1-41.8-34c-26.3,25.1-60.7,37.7-103.9,37.7-81.6,0-134.2-48-134.2-116s12.8-62.8,37.8-85.7c25-22.9,58-34,99.2-34s65.4,8.9,89,27.3v-16.3c0-52.5-32.4-82-78.9-82s-41.8,5.9-61.4,17.7c-7.4,3.7-14.8,5.9-22.9,5.9-22.3,0-37.8-17-37.8-40.6s7.4-30.3,22.9-39.9c30.4-22.2,70.1-33.3,118.7-33.3,97.8,0,157.8,64.3,157.8,172.9ZM1840,701.4c0-29.6-26.3-52.5-66.8-52.5s-64.1,22.9-64.1,52.5,26.3,52.5,64.1,52.5,66.8-22.9,66.8-52.5Z"/>
    <path class="cls-2" d="M2011.3,476c0-27.3,18.2-47.3,43.2-47.3s43.8,20,43.8,47.3l.7,31c21.6-54.7,54-82,97.8-82s50.6,22.9,50.6,54.7-20.9,55.4-50.6,55.4c-54,0-87.7,37.7-87.7,110.8v118.2c0,31.8-19.6,53.9-48.6,53.9s-49.2-22.2-49.2-53.9v-288.2ZM2283.1,391c0-31.8,19.6-53.2,48.6-53.2s49.2,21.4,49.2,53.2v41.4h70.8c24.3,0,40.5,17.7,40.5,44.3s-16.2,45.1-40.5,45.1h-70.8v151.5c0,33.3,13.5,50.2,41.1,50.2s24.3-3,27-3c25,0,42.5,17,42.5,44.3s-11.5,39.2-34.4,48c-18.2,5.9-38.4,8.9-60.7,8.9-70.2,0-113.3-44.3-113.3-121.2v-309.6Z"/>
    <path class="cls-2" d="M2849.7,467.1c25,27.3,37.1,65.8,37.1,114.5v182.5c0,31.8-20.2,53.9-49.2,53.9s-48.6-22.2-48.6-53.9v-147.8c0-61.3-27.7-92.4-68.1-92.4s-73.5,31.8-73.5,96.1v144.1c0,31.8-19.6,53.9-48.6,53.9s-49.2-22.2-49.2-53.9v-285.2c0-28.8,18.9-50.2,45.9-50.2s45.2,21.4,45.2,50.2v13.3c24.3-44.3,67.5-67.2,115.3-67.2s69.5,14,93.8,42.1Z"/>
    <path class="cls-2" d="M3256.5,478.2c34.4,34.7,51.3,75.4,51.3,120.4s-16.2,45.8-41.1,45.8h-219.9c6.1,50.2,43.2,84.2,93.8,84.2s51.3-10.3,74.9-30.3c8.8-6.7,17.5-9.6,27-9.6,23.6,0,39.8,17,39.8,42.9s-7.4,28.8-21.6,42.1c-33.1,31.8-74.9,48-126.8,48s-98.5-18.5-134.2-56.2c-35.1-37.7-52.6-84.2-52.6-140.4s18.2-103.4,54-141.9c35.8-39.2,80.3-58.4,133.6-58.4s88.4,17.7,122.1,53.2ZM3213.3,579.4c-6.1-41.4-40.5-74.6-80.3-74.6s-77.6,31-86.3,74.6h166.6Z"/>
    <path class="cls-2" d="M3369.1,476c0-27.3,18.2-47.3,43.2-47.3s43.8,20,43.8,47.3l.7,31c21.6-54.7,54-82,97.8-82s50.6,22.9,50.6,54.7-20.9,55.4-50.6,55.4c-54,0-87.7,37.7-87.7,110.8v118.2c0,31.8-19.6,53.9-48.6,53.9s-49.2-22.2-49.2-53.9v-288.2Z"/>
    <path class="cls-2" d="M3829.8,716.1l240.1-323.6h-199c-26.3,0-43.2-19.2-43.2-48s18.2-47.3,43.2-47.3h289.4c30.4,0,51.9,22.9,51.9,56.2s-4.7,28.8-14.2,40.6l-242.2,325.1h213.2c25,0,43.2,20,43.2,47.3s-18.2,48-43.2,48h-303.5c-30.4,0-51.3-22.9-51.3-55.4s5.4-29.6,15.5-42.9Z"/>
    <path class="cls-2" d="M4246.7,625.3c0-56.2,18.2-103.4,54.6-141.9,36.4-39.2,81.6-58.4,135.6-58.4s98.5,18.5,133.6,56.2c35.8,37.7,53.3,84.2,53.3,140.4s-18.2,103.4-54.6,142.6c-36.4,38.4-81.6,57.6-135.6,57.6s-98.5-18.5-134.2-56.2c-35.1-37.7-52.6-84.2-52.6-140.4ZM4499.6,694.7c17.5-19.2,26.3-42.9,26.3-70.9s-8.8-51.7-26.3-70.9c-16.9-19.2-38.4-28.8-64.1-28.8s-47.9,9.6-65.4,28.8c-16.9,19.2-25.6,42.9-25.6,70.9s8.8,51.7,25.6,70.9c17.5,19.2,39.1,28.8,65.4,28.8s47.2-9.6,64.1-28.8Z"/>
    <path class="cls-2" d="M4988,467.1c25,27.3,37.1,65.8,37.1,114.5v182.5c0,31.8-20.2,53.9-49.2,53.9s-48.6-22.2-48.6-53.9v-147.8c0-61.3-27.7-92.4-68.1-92.4s-73.5,31.8-73.5,96.1v144.1c0,31.8-19.6,53.9-48.6,53.9s-49.2-22.2-49.2-53.9v-285.2c0-28.8,18.9-50.2,45.9-50.2s45.2,21.4,45.2,50.2v13.3c24.3-44.3,67.5-67.2,115.3-67.2s69.5,14,93.8,42.1Z"/>
    <path class="cls-2" d="M5394.7,478.2c34.4,34.7,51.3,75.4,51.3,120.4s-16.2,45.8-41.1,45.8h-219.9c6.1,50.2,43.2,84.2,93.8,84.2s51.3-10.3,74.9-30.3c8.8-6.7,17.5-9.6,27-9.6,23.6,0,39.8,17,39.8,42.9s-7.4,28.8-21.6,42.1c-33.1,31.8-74.9,48-126.8,48s-98.5-18.5-134.2-56.2c-35.1-37.7-52.6-84.2-52.6-140.4s18.2-103.4,54-141.9c35.8-39.2,80.3-58.4,133.6-58.4s88.4,17.7,122.1,53.2ZM5351.5,579.4c-6.1-41.4-40.5-74.6-80.3-74.6s-77.6,31-86.3,74.6h166.6Z"/>
  </g>
</svg>